<svg width="22" height="22" viewBox="0 0 22 22" fill="none" xmlns="http://www.w3.org/2000/svg">
<g id="Icon/Edit">
<path id="Vector" d="M4.58334 16.5H8.47C8.59064 16.5007 8.71023 16.4776 8.82192 16.432C8.9336 16.3863 9.03518 16.3191 9.12084 16.2342L15.4642 9.88167L18.0675 7.33333C18.1534 7.24812 18.2216 7.14673 18.2682 7.03503C18.3147 6.92332 18.3386 6.80351 18.3386 6.6825C18.3386 6.56149 18.3147 6.44168 18.2682 6.32997C18.2216 6.21827 18.1534 6.11688 18.0675 6.03167L14.1808 2.09917C14.0956 2.01325 13.9942 1.94505 13.8825 1.89852C13.7708 1.85198 13.651 1.82802 13.53 1.82802C13.409 1.82802 13.2892 1.85198 13.1775 1.89852C13.0658 1.94505 12.9644 2.01325 12.8792 2.09917L10.2942 4.69333L3.9325 11.0458C3.84754 11.1315 3.78033 11.2331 3.73471 11.3448C3.68909 11.4564 3.66597 11.576 3.66667 11.6967V15.5833C3.66667 15.8264 3.76325 16.0596 3.93515 16.2315C4.10706 16.4034 4.34022 16.5 4.58334 16.5ZM13.53 4.0425L16.1242 6.63667L14.8225 7.93833L12.2283 5.34417L13.53 4.0425ZM5.5 12.0725L10.9358 6.63667L13.53 9.23083L8.09417 14.6667H5.5V12.0725ZM19.25 18.3333H2.75C2.50689 18.3333 2.27373 18.4299 2.10182 18.6018C1.92991 18.7737 1.83334 19.0069 1.83334 19.25C1.83334 19.4931 1.92991 19.7263 2.10182 19.8982C2.27373 20.0701 2.50689 20.1667 2.75 20.1667H19.25C19.4931 20.1667 19.7263 20.0701 19.8982 19.8982C20.0701 19.7263 20.1667 19.4931 20.1667 19.25C20.1667 19.0069 20.0701 18.7737 19.8982 18.6018C19.7263 18.4299 19.4931 18.3333 19.25 18.3333Z" fill="#777C85"/>
</g>
</svg>
